Coordinates
version=1
nRows=13
nColumns=40
inDegrees=yes

Units are S.I. units (second, meters, Newtons, ...)
If the header above contains a line with 'inDegrees', this indicates whether rotational values are in degrees (yes) or radians (no).

endheader
time	pelvis_tilt	pelvis_list	pelvis_rotation	pelvis_tx	pelvis_ty	pelvis_tz	hip_flexion_r	hip_adduction_r	hip_rotation_r	knee_angle_r	knee_angle_r_beta	ankle_angle_r	subtalar_angle_r	mtp_angle_r	hip_flexion_l	hip_adduction_l	hip_rotation_l	knee_angle_l	knee_angle_l_beta	ankle_angle_l	subtalar_angle_l	mtp_angle_l	lumbar_extension	lumbar_bending	lumbar_rotation	arm_flex_r	arm_add_r	arm_rot_r	elbow_flex_r	pro_sup_r	wrist_flex_r	wrist_dev_r	arm_flex_l	arm_add_l	arm_rot_l	elbow_flex_l	pro_sup_l	wrist_flex_l	wrist_dev_l
      0.00500000	    -10.74725337	      8.63171054	      7.81069585	     -0.61232310	      0.89698078	      0.19054553	     41.28710484	    -14.35860356	    -12.52882863	     12.21154901	      0.21313174	      6.88430207	     -4.23511619	      0.00000000	     -7.14308491	      9.62525920	    -10.60290340	      6.96760740	      0.12160769	     12.26766660	     12.07422656	      0.00000000	      1.65181177	    -10.15842979	      3.07576945	     41.98022866	    -16.17871119	     41.98022866	     76.39308327	     44.54261366	      0.00000000	      0.00000000	     41.98022866	    -16.17871119	     41.98022866	     76.39308327	     44.54261366	      0.00000000	      0.00000000
      0.01000000	    -10.75959979	      8.62482133	      7.87447625	     -0.60762638	      0.89634211	      0.19087251	     41.30639720	    -14.33269999	    -12.41322405	     12.23176972	      0.21348465	      6.88761131	     -4.23854080	      0.00000000	     -7.38386129	      9.51228078	    -10.51099522	      7.07983678	      0.12356646	     12.21640440	     12.08540393	      0.00000000	      1.71623932	    -10.13353358	      3.07633391	     41.98046957	    -16.17855591	     41.98046957	     76.39272390	     44.54294086	      0.00000000	      0.00000000	     41.98046957	    -16.17855591	     41.98046957	     76.39272390	     44.54294086	      0.00000000	      0.00000000
      0.01500000	    -10.26470689	      8.29495274	      8.15669806	     -0.60246703	      0.89677395	      0.19076078	     40.32395064	    -14.04212344	    -12.38299884	     11.58279600	      0.20215793	      6.57358560	     -4.84851242	      0.00000000	     -8.06584015	      8.93227222	    -10.25437740	      7.35057006	      0.12829165	     12.13083230	     12.14763084	      0.00000000	      1.11311688	     -9.51286141	      3.00567793	     41.99125685	    -16.17160662	     41.99125685	     76.37667324	     44.55741966	      0.00000000	      0.00000000	     41.99125685	    -16.17160662	     41.99125685	     76.37667324	     44.55741966	      0.00000000	      0.00000000
      0.02000000	    -10.16182249	      8.27652376	      8.29600319	     -0.59674445	      0.89623370	      0.19107167	     40.18705995	    -14.03213947	    -12.24805701	     11.67426167	      0.20375430	      6.60951851	     -5.05200804	      0.00000000	     -8.41603343	      8.73760189	    -10.13828194	      7.60510755	      0.13273417	     11.99118202	     12.18881515	      0.00000000	      0.99951536	     -9.42261402	      2.94122668	     41.99364213	    -16.17007224	     41.99364213	     76.37314168	     44.56056564	      0.00000000	      0.00000000	     41.99364213	    -16.17007224	     41.99364213	     76.37314168	     44.56056564	      0.00000000	      0.00000000
      0.02500000	     -9.89054986	      8.13445409	      8.50154145	     -0.59051161	      0.89599997	      0.19123107	     39.74578914	    -13.93443972	    -12.21611042	     11.65325785	      0.20338772	      6.47818875	     -5.35106563	      0.00000000	     -8.90915249	      8.35878073	    -10.02644619	      7.96145203	      0.13895355	     11.89542159	     12.32511770	      0.00000000	      0.70570132	     -9.13896572	      2.75399699	     41.99852511	    -16.16693322	     41.99852511	     76.36592876	     44.56695222	      0.00000000	      0.00000000	     41.99852511	    -16.16693322	     41.99852511	     76.36592876	     44.56695222	      0.00000000	      0.00000000
      0.03000000	     -9.90895923	      8.09713399	      8.60403512	     -0.58357472	      0.89515530	      0.19165832	     39.69616174	    -13.88460213	    -12.02216722	     11.77552553	      0.20552169	      6.43972200	     -5.35454426	      0.00000000	     -9.23936698	      8.15747714	     -9.90626829	      8.12610469	      0.14182728	     11.78129305	     12.35884038	      0.00000000	      0.85681923	     -9.09463730	      2.73300722	     41.99872356	    -16.16680584	     41.99872356	     76.36563684	     44.56720881	      0.00000000	      0.00000000	     41.99872356	    -16.16680584	     41.99872356	     76.36563684	     44.56720881	      0.00000000	      0.00000000
      0.03500000	     -9.57239549	      7.91727898	      8.80221641	     -0.57670327	      0.89495009	      0.19193332	     39.29150581	    -13.74669806	    -12.01600448	     12.10227728	      0.21122459	      6.35836006	     -5.97293318	      0.00000000	     -9.74999951	      7.69306470	     -9.80209966	      8.61657244	      0.15038756	     11.42682490	     12.36333143	      0.00000000	      0.45002438	     -8.70936057	      2.55711926	     42.00097192	    -16.16536191	     42.00097192	     76.36232672	     44.57011521	      0.00000000	      0.00000000	     42.00097192	    -16.16536191	     42.00097192	     76.36232672	     44.57011521	      0.00000000	      0.00000000
      0.04000000	     -8.88455993	      7.35519452	      9.15168577	     -0.56918736	      0.89553871	      0.19168914	     38.00203974	    -13.25778901	    -12.23930030	     11.62990124	      0.20298007	      5.71456006	     -6.64617123	      0.00000000	    -10.56404571	      6.71925216	     -9.80929034	      9.19930091	      0.16055809	     11.38276945	     12.76285410	      0.00000000	     -0.24880180	     -7.90911556	      1.87824562	     42.01107442	    -16.15888177	     42.01107442	     76.34751609	     44.58297621	      0.00000000	      0.00000000	     42.01107442	    -16.15888177	     42.01107442	     76.34751609	     44.58297621	      0.00000000	      0.00000000
      0.04500000	     -8.70993502	      7.23277759	      9.25846905	     -0.56153506	      0.89499142	      0.19219777	     37.79435927	    -13.11950046	    -12.09390712	     12.06802759	      0.21062682	      5.51764806	     -7.07794866	      0.00000000	    -10.98945945	      6.34783528	     -9.72192071	      9.59845662	      0.16752467	     11.02664176	     12.68577168	      0.00000000	     -0.35106770	     -7.67603870	      1.73958770	     42.01314692	    -16.15755433	     42.01314692	     76.34449273	     44.58556904	      0.00000000	      0.00000000	     42.01314692	    -16.15755433	     42.01314692	     76.34449273	     44.58556904	      0.00000000	      0.00000000
      0.05000000	     -8.23145264	      6.83550599	      9.49190031	     -0.55365266	      0.89511060	      0.19231365	     36.94466194	    -12.71970576	    -12.08106903	     12.03328151	      0.21002038	      4.89452047	     -7.81667735	      0.00000000	    -11.61113416	      5.59062106	     -9.70934673	     10.17200516	      0.17753498	     10.77648634	     12.81597939	      0.00000000	     -0.78891206	     -7.10498961	      1.22167470	     42.02405121	    -16.15057967	     42.02405121	     76.32866158	     44.59897649	      0.00000000	      0.00000000	     42.02405121	    -16.15057967	     42.02405121	     76.32866158	     44.59897649	      0.00000000	      0.00000000
      0.05500000	     -7.90276161	      6.56710991	      9.63123311	     -0.54562474	      0.89491746	      0.19271777	     36.43340051	    -12.41835226	    -11.99129435	     12.34246432	      0.21541664	      4.39637075	     -8.44422186	      0.00000000	    -12.11329303	      5.01331808	     -9.67663442	     10.70847960	      0.18689823	     10.37436886	     12.75421655	      0.00000000	     -1.04466970	     -6.69492444	      0.92792350	     42.03416567	    -16.14412466	     42.03416567	     76.31408952	     44.61107646	      0.00000000	      0.00000000	     42.03416567	    -16.14412466	     42.03416567	     76.31408952	     44.61107646	      0.00000000	      0.00000000
      0.06000000	     -7.78739361	      6.40026953	      9.67057543	     -0.53745511	      0.89436895	      0.19336868	     36.26848817	    -12.18981217	    -11.72008761	     12.89691425	      0.22509362	      4.12616637	     -8.68395650	      0.00000000	    -12.46817840	      4.61581181	     -9.53220451	     11.11402611	      0.19397635	      9.86107082	     12.62781320	      0.00000000	     -1.06182710	     -6.42024897	      0.82937537	     42.03497881	    -16.14360646	     42.03497881	     76.31292351	     44.61203382	      0.00000000	      0.00000000	     42.03497881	    -16.14360646	     42.03497881	     76.31292351	     44.61203382	      0.00000000	      0.00000000
      0.06500000	     -7.23849410	      5.99072340	      9.82196473	     -0.52922966	      0.89467086	      0.19372723	     35.46031770	    -11.73631992	    -11.88031473	     13.18255951	      0.23007907	      3.26390061	     -9.61060897	      0.00000000	    -13.06606534	      3.83184079	     -9.62906563	     11.83714929	      0.20659723	      9.29562353	     12.35587710	      0.00000000	     -1.51623173	     -5.78443141	      0.50746382	     42.04388109	    -16.13793808	     42.04388109	     76.30019853	     44.62238824	      0.00000000	      0.00000000	     42.04388109	    -16.13793808	     42.04388109	     76.30019853	     44.62238824	      0.00000000	      0.00000000
